<?xml version="1.0" encoding="UTF-8" standalone="no"?>
<svg
   viewBox="0 0 512 512"
   version="1.1"
   id="svg4"
   sodipodi:docname="linkedin-icon.svg"
   inkscape:version="1.1.2 (0a00cf5339, 2022-02-04)"
   xmlns:inkscape="http://www.inkscape.org/namespaces/inkscape"
   xmlns:sodipodi="http://sodipodi.sourceforge.net/DTD/sodipodi-0.dtd"
   xmlns="http://www.w3.org/2000/svg"
   xmlns:svg="http://www.w3.org/2000/svg">
  <defs
     id="defs8" />
  <sodipodi:namedview
     id="namedview6"
     pagecolor="#ffffff"
     bordercolor="#666666"
     borderopacity="1.0"
     inkscape:pageshadow="2"
     inkscape:pageopacity="0.0"
     inkscape:pagecheckerboard="true"
     showgrid="false"
     inkscape:zoom="1.1054688"
     inkscape:cx="255.5477"
     inkscape:cy="255.5477"
     inkscape:window-width="1536"
     inkscape:window-height="800"
     inkscape:window-x="0"
     inkscape:window-y="0"
     inkscape:window-maximized="1"
     inkscape:current-layer="svg4" />
  <path
     d="M417.2 64H96.8C79.3 64 64 76.6 64 93.9V415c0 17.4 15.3 32.9 32.8 32.9h320.3c17.6 0 30.8-15.6 30.8-32.9V93.9C448 76.6 434.7 64 417.2 64zM183 384h-55V213h55v171zm-25.6-197h-.4c-17.6 0-29-13.1-29-29.5 0-16.7 11.7-29.5 29.7-29.5s29 12.7 29.4 29.5c0 16.4-11.4 29.5-29.7 29.5zM384 384h-55v-93.5c0-22.4-8-37.7-27.9-37.7-15.2 0-24.2 10.3-28.2 20.3-1.5 3.6-1.9 8.5-1.9 13.5V384h-55V213h55v23.8c8-11.4 20.5-27.8 49.6-27.8 36.1 0 63.4 23.8 63.4 75.1V384z"
     id="path2"
     style="fill:#ffffff;fill-opacity:1" />
</svg>
